<svg width="685" height="458" viewBox="0 0 685 458" fill="none" xmlns="http://www.w3.org/2000/svg">
<path d="M520.628 256.486V195.938L629.53 129.084V127.402L520.628 60.5474V0L684.19 105.537V150.948L520.628 256.486Z" fill="white"/>
<path d="M163.562 256.486L0 150.948V105.537L163.562 0V60.5474L54.6608 127.402V129.084L163.562 195.938V256.486Z" fill="white"/>
<path d="M341.751 231.963L325.458 217.131C267.59 164.657 229.386 130.048 229.386 87.5743C229.386 52.966 256.578 25.7737 291.186 25.7737C310.738 25.7737 329.503 34.8752 341.751 49.2579C353.998 34.8752 372.763 25.7737 392.315 25.7737C426.923 25.7737 454.115 52.966 454.115 87.5743C454.115 130.048 415.911 164.657 358.043 217.243L341.751 231.963Z" fill="white"/>
<path d="M158.693 426.877L122.885 402.589V396.637L158.693 372.349V379.933L129.797 399.421V399.805L158.693 419.293V426.877ZM178.431 446.845L209.919 363.325H217.023L185.535 446.845H178.431ZM259.706 432.637C254.842 432.637 250.458 431.677 246.554 429.757C242.714 427.837 239.674 425.053 237.434 421.405C235.258 417.757 234.17 413.373 234.17 408.253C234.17 403.005 235.354 398.557 237.722 394.909C240.09 391.261 243.226 388.477 247.13 386.557C251.098 384.637 255.45 383.677 260.186 383.677C264.026 383.677 267.322 384.349 270.074 385.693C272.89 387.037 275.258 388.637 277.178 390.493L273.242 395.581C271.322 393.917 269.338 392.605 267.29 391.645C265.242 390.685 262.97 390.205 260.474 390.205C256.89 390.205 253.722 390.973 250.97 392.509C248.218 393.981 246.074 396.093 244.538 398.845C243.066 401.533 242.33 404.669 242.33 408.253C242.33 411.773 243.066 414.877 244.538 417.565C246.01 420.253 248.09 422.365 250.778 423.901C253.53 425.373 256.698 426.109 260.282 426.109C263.162 426.109 265.786 425.533 268.154 424.381C270.586 423.229 272.762 421.853 274.682 420.253L278.234 425.341C275.674 427.645 272.794 429.437 269.594 430.717C266.458 431.997 263.162 432.637 259.706 432.637ZM298.068 431.485V384.829H304.596L305.268 395.869H305.556C307.988 392.093 310.996 389.117 314.58 386.941C318.164 384.765 322.1 383.677 326.388 383.677C328.116 383.677 329.716 383.837 331.188 384.157C332.724 384.413 334.196 384.893 335.604 385.597L333.78 392.413C332.18 391.837 330.804 391.421 329.652 391.165C328.5 390.909 326.996 390.781 325.14 390.781C321.62 390.781 318.228 391.805 314.964 393.853C311.764 395.837 308.756 399.261 305.94 404.125V431.485H298.068ZM365.231 432.637C359.663 432.637 355.567 431.037 352.943 427.837C350.319 424.637 349.007 419.965 349.007 413.821V384.829H356.975V412.765C356.975 417.181 357.775 420.477 359.375 422.653C361.039 424.765 363.823 425.821 367.727 425.821C370.415 425.821 372.847 425.149 375.023 423.805C377.263 422.397 379.663 420.189 382.223 417.181V384.829H390.095V431.485H383.663L382.991 423.325H382.607C380.239 426.013 377.647 428.253 374.831 430.045C372.015 431.773 368.815 432.637 365.231 432.637ZM428.937 432.637C424.393 432.637 420.137 431.901 416.169 430.429C412.201 428.957 408.809 427.261 405.993 425.341L409.641 420.157C412.329 422.077 415.305 423.613 418.569 424.765C421.833 425.917 425.609 426.493 429.897 426.493C433.865 426.493 436.809 425.757 438.729 424.285C440.713 422.813 441.705 421.117 441.705 419.197C441.705 418.301 441.513 417.469 441.129 416.701C440.809 415.933 440.137 415.197 439.113 414.493C438.153 413.789 436.713 413.117 434.793 412.477C432.873 411.837 430.313 411.197 427.113 410.557C421.033 409.277 416.457 407.549 413.385 405.373C410.377 403.197 408.873 400.381 408.873 396.925C408.873 393.149 410.505 390.013 413.769 387.517C417.033 384.957 421.865 383.677 428.265 383.677C431.849 383.677 435.305 384.285 438.633 385.501C441.961 386.653 444.777 388.029 447.081 389.629L443.241 394.717C441.129 393.181 438.729 391.997 436.041 391.165C433.353 390.269 430.537 389.821 427.593 389.821C424.905 389.821 422.761 390.141 421.161 390.781C419.625 391.357 418.505 392.157 417.801 393.181C417.161 394.205 416.841 395.325 416.841 396.541C416.841 398.525 417.897 400.093 420.009 401.245C422.185 402.333 425.641 403.357 430.377 404.317C435.561 405.405 439.529 406.621 442.281 407.965C445.097 409.309 447.017 410.845 448.041 412.573C449.129 414.301 449.673 416.349 449.673 418.717C449.673 421.277 448.873 423.613 447.273 425.725C445.673 427.773 443.337 429.437 440.265 430.717C437.193 431.997 433.417 432.637 428.937 432.637ZM465.668 431.485V363.133H473.54V381.757L473.06 392.797H473.348C475.716 390.237 478.308 388.093 481.124 386.365C483.94 384.573 487.172 383.677 490.82 383.677C496.324 383.677 500.388 385.277 503.012 388.477C505.636 391.677 506.948 396.349 506.948 402.493V431.485H499.076V403.549C499.076 399.133 498.244 395.869 496.58 393.757C494.916 391.581 492.164 390.493 488.324 390.493C485.572 390.493 483.108 391.197 480.932 392.605C478.756 394.013 476.292 396.125 473.54 398.941V431.485H465.668ZM524.574 426.877V419.293L553.47 399.805V399.421L524.574 379.933V372.349L560.382 396.637V402.589L524.574 426.877Z" fill="white"/>
</svg>
